<?xml version="1.0" encoding="UTF-8"?>
<svg xmlns="http://www.w3.org/2000/svg" xmlns:xlink="http://www.w3.org/1999/xlink" viewBox="0 0 48 48" width="48px" height="48px">
<g id="surface85842635">
<path style=" stroke:none;fill-rule:nonzero;fill:rgb(100%,100%,100%);fill-opacity:1;" d="M 6.71875 1.921875 L 6.71875 46.078125 L 41.28125 46.078125 L 41.28125 14.011719 L 41.011719 13.710938 L 29.488281 2.191406 L 29.191406 1.921875 Z M 8.640625 3.839844 L 27.839844 3.839844 L 27.839844 15.359375 L 39.359375 15.359375 L 39.359375 44.160156 L 8.640625 44.160156 Z M 29.761719 5.21875 L 37.980469 13.441406 L 29.761719 13.441406 Z M 14.398438 21.121094 L 14.398438 23.039062 L 33.601562 23.039062 L 33.601562 21.121094 Z M 14.398438 26.878906 L 14.398438 28.800781 L 29.761719 28.800781 L 29.761719 26.878906 Z M 14.398438 32.640625 L 14.398438 34.558594 L 33.601562 34.558594 L 33.601562 32.640625 Z M 14.398438 32.640625 "/>
</g>
</svg>
