<?xml version="1.0" encoding="UTF-8"?>
<svg xmlns="http://www.w3.org/2000/svg" xmlns:xlink="http://www.w3.org/1999/xlink" viewBox="0 0 48 48" width="48px" height="48px">
<g id="surface85863775">
<path style=" stroke:none;fill-rule:nonzero;fill:rgb(96.470588%,95.294118%,95.294118%);fill-opacity:1;" d="M 22 4 L 22 6 L 12 6 C 9.792969 6 8 7.792969 8 10 L 8 40 C 8 42.207031 9.792969 44 12 44 L 36 44 C 38.207031 44 40 42.207031 40 40 L 40 10 C 40 7.792969 38.207031 6 36 6 L 26 6 L 26 4 Z M 12 10 L 22 10 L 22 12 L 26 12 L 26 10 L 36 10 L 36 40 L 12 40.003906 Z M 24 18 C 21.789062 18 20 19.789062 20 22 C 20 24.210938 21.789062 26 24 26 C 26.210938 26 28 24.210938 28 22 C 28 19.789062 26.210938 18 24 18 Z M 24 28 C 19.628906 28 16 29.816406 16 32.433594 L 16 34 L 32 34 L 32 32.433594 C 32 29.816406 28.371094 28 24 28 Z M 24 28 "/>
</g>
</svg>
